<?xml version="1.0" encoding="UTF-8"?>
<svg id="Layer_2" data-name="Layer 2" xmlns="http://www.w3.org/2000/svg" viewBox="0 0 597.71 597.71">
  <defs>
    <style>
      .cls-1 {
        fill: #f38020;
      }

      .cls-1, .cls-2, .cls-3, .cls-4, .cls-5 {
        stroke-width: 0px;
      }

      .cls-2 {
        fill: none;
      }

      .cls-3 {
        fill: #fffefd;
      }

      .cls-4 {
        fill: #faae40;
      }

      .cls-5 {
        fill: #403c3e;
      }
    </style>
  </defs>
  <g id="Layer_1-2" data-name="Layer 1">
    <rect class="cls-2" width="597.71" height="597.71"/>
    <line class="cls-2" x1="448.75" y1="285.76" x2="456.42" y2="289.18"/>
    <g>
      <g>
        <path class="cls-5" d="M526.33,450.4c1.98,2.89,3.82,5.58,5.65,8.28,1.78,2.62,3.56,5.23,5.57,8.2-1.01.05-1.65.1-2.29.1-3.54,0-7.07-.08-10.6.04-1.64.06-2.65-.39-3.56-1.85-2.65-4.23-5.5-8.34-8.29-12.52h-5.83v14.17h-13.1v-47.42c.61-.05,1.18-.13,1.75-.13,6.98,0,13.97-.1,20.95.05,2.73.06,5.53.36,8.15,1.09,7.63,2.12,11.74,8.2,11.28,16.12-.34,5.91-3.02,10.3-8.28,13.09-.38.2-.74.42-1.4.79ZM506.9,441.97c3.63,0,7.04.02,10.46-.02.59,0,1.19-.23,1.75-.43,2.7-1,4.1-3.6,3.47-6.41-.58-2.6-2.51-4.16-5.68-4.32-2.75-.14-5.51-.07-8.26-.06-.56,0-1.13.14-1.74.23v11.01Z"/>
        <path class="cls-5" d="M145.55,418.22c12.06.06,21.82,7.35,24.73,18.52,3.78,14.5-6.33,29.14-21.22,30.83-5.36.61-10.5,0-15.38-2.3-9.71-4.57-15.14-14.65-13.8-25.49,1.26-10.2,9.23-18.75,19.51-20.92.93-.2,1.86-.38,2.8-.48,1.11-.11,2.24-.12,3.36-.17ZM145.37,430.22c-6.91,0-12.05,5.44-12.06,12.75-.01,7.35,5.33,13.02,12.22,12.96,6.89-.06,12.07-5.55,12.07-12.81,0-7.37-5.24-12.91-12.23-12.91Z"/>
        <path class="cls-5" d="M252.01,419.26c1.87,0,3.58,0,5.29,0,4.75,0,9.5,0,14.24.03,4.37.02,8.59.83,12.55,2.69,8.06,3.78,12.37,10.18,12.96,19.06.27,4.01-.18,7.94-1.82,11.65-3.22,7.27-9.05,11.36-16.56,13.19-2.5.61-5.11.93-7.68,1-5.87.15-11.74.06-17.61.05-.41,0-.83-.07-1.36-.12v-47.54ZM265.22,455.08c2.52,0,4.85.13,7.15-.03,5.67-.38,9.71-3.59,10.86-8.65.34-1.48.37-3.07.3-4.61-.19-4.83-2.97-8.46-7.54-10.04-3.49-1.21-7.07-.97-10.78-.84v24.17Z"/>
        <path class="cls-5" d="M555.14,466.79v-47.16c2.01-.53,29.82-.75,38.05-.28v10.99h-25c0,1.36,0,2.44,0,3.53s0,2.23,0,3.62h22.68v10.56c-2.36.2-4.84.07-7.3.09-2.5.02-5,0-7.5,0h-7.67v7.43h25.18v10.95c-1.86.52-31.45.75-38.42.25Z"/>
        <path class="cls-5" d="M55.03,437.95h-13.73c-.36-.62-.75-1.36-1.21-2.07-2.62-4.07-6.37-5.97-11.18-5.61-4.62.34-7.95,2.76-9.83,6.94-1.97,4.37-1.77,8.76.71,12.9,4.56,7.61,15.17,7.8,20.1.4.33-.5.63-1.02.94-1.53h14.01c-.58,1.6-.98,3-1.57,4.31-4.73,10.41-15.41,15.49-25.78,14.51-9.55-.9-16.87-5.44-21.01-14.25-6.8-14.44,1.97-31.64,17.69-34.64,10.57-2.02,19.68.71,26.58,9.34,2.23,2.79,3.65,6.01,4.29,9.69Z"/>
        <path class="cls-5" d="M218.21,419.37h13.29c.06.76.15,1.43.15,2.09,0,8.11.09,16.22-.05,24.33-.05,2.73-.37,5.53-1.07,8.17-1.69,6.4-5.85,10.64-12.23,12.53-5.58,1.66-11.26,1.72-16.88.3-7.86-1.98-12.3-7.26-13.68-15.14-.35-2.03-.48-4.12-.49-6.18-.06-7.85-.02-15.7-.02-23.55v-2.47h13.44c0,.89,0,1.73,0,2.57,0,7.68-.03,15.36.02,23.03.01,1.54.15,3.11.51,4.61.96,4.04,4,6.18,8.42,6.12,4.33-.06,7.18-2.16,8.1-6.17.33-1.41.45-2.9.46-4.35.04-7.68.02-15.36.02-23.03,0-.85,0-1.71,0-2.85Z"/>
        <path class="cls-5" d="M443.62,418.93h12.8c6.7,15.83,13.43,31.72,20.25,47.85h-14.14c-1.13-2.65-2.3-5.4-3.51-8.27h-18.32c-1.1,2.65-2.24,5.41-3.42,8.27h-13.81c6.75-16.04,13.45-31.94,20.15-47.86ZM455.29,448.06c-1.79-4.59-3.43-8.78-5.27-13.48-1.88,4.77-3.56,9.02-5.32,13.48h10.59Z"/>
        <path class="cls-5" d="M329.55,449.93v16.84h-12.81c-.56-1.82-.82-40.76-.28-47.34h37.92v11.33h-24.69v8.15h22.32v11.02h-22.46Z"/>
        <path class="cls-5" d="M373.01,466.76v-47.37h13.08v35.84h23.03c.16,3.9.04,7.63.08,11.53h-36.19Z"/>
        <path class="cls-5" d="M105.88,455.24v11.52h-36.01v-47.36h13.07v35.84h22.94Z"/>
      </g>
      <g>
        <path class="cls-1" d="M402.94,396.3c-.28.04-.57.1-.85.11-.81.02-1.61,0-2.42,0-80.68,0-161.35,0-242.03,0-48.95,0-97.89-.03-146.84-.05-.58,0-1.15.02-1.73-.02-1.26-.08-2.33-.58-3.14-1.59-.33-.41-.61-.84-.73-1.36-.1-.45-.26-.89-.28-1.35-.08-1.44-.27-2.87-.39-4.3-.33-3.9-.52-7.82-.28-11.74.13-2.12.16-4.26.5-6.37.17-1.08.23-2.17.39-3.26.3-2.11.75-4.19,1.18-6.28.6-2.88,1.42-5.69,2.35-8.48.79-2.4,1.69-4.77,2.68-7.1.81-1.91,1.71-3.78,2.63-5.63,1.13-2.27,2.42-4.45,3.76-6.6,1.83-2.93,3.81-5.76,5.99-8.44,2.07-2.55,4.24-5.01,6.57-7.33,1.51-1.51,3.06-2.97,4.67-4.36,1.75-1.5,3.5-2.99,5.4-4.3,1.09-.75,2.15-1.55,3.24-2.29,3.62-2.46,7.42-4.62,11.38-6.5,4.79-2.29,9.74-4.11,14.85-5.53,3.45-.96,6.95-1.58,10.46-2.21,1.82-.33,3.67-.35,5.48-.65.62-.1,1.26-.07,1.9-.1.81-.03,1.61-.06,2.42-.1.47-.03.73-.38.61-.83-.43-1.67-.77-3.37-.99-5.08-.09-.68-.2-1.37-.25-2.05-.13-1.61-.39-3.2-.38-4.82.02-2.13-.03-4.26.03-6.39.06-2.19.35-4.36.67-6.52.47-3.14,1.26-6.2,2.2-9.22.84-2.7,1.87-5.33,3.13-7.85,1-2,2.07-3.98,3.25-5.89,1.62-2.6,3.45-5.03,5.35-7.42.5-.63,1.07-1.2,1.62-1.79,1.32-1.44,2.7-2.82,4.14-4.15,1.65-1.53,3.42-2.91,5.2-4.27,1.05-.8,2.17-1.51,3.28-2.24,2.94-1.93,6.05-3.55,9.28-4.96,2.64-1.15,5.36-2.07,8.15-2.82,1.67-.45,3.35-.85,5.04-1.16,1.02-.19,2.04-.35,3.07-.47,4.76-.55,9.52-.7,14.3-.18,2.12.23,4.23.51,6.32.91,1.47.28,2.91.69,4.36,1.06,3.18.82,6.24,2,9.24,3.34,3.69,1.65,7.16,3.68,10.48,5.98.33.23.69.41,1.05.59.07.03.25-.03.29-.1.15-.24.29-.5.38-.77,1-2.94,2.14-5.84,3.36-8.69.88-2.06,1.77-4.12,2.8-6.12.53-1.02,1-2.08,1.53-3.09.91-1.73,1.82-3.46,2.8-5.16,1.29-2.24,2.6-4.48,4.04-6.63.84-1.24,1.65-2.5,2.49-3.73,1.39-2.05,2.87-4.03,4.39-5.99,2.3-2.96,4.71-5.81,7.22-8.59,2.63-2.91,5.39-5.68,8.25-8.36,2.65-2.48,5.39-4.86,8.25-7.09,3.54-2.76,7.17-5.41,10.95-7.84,2.28-1.46,4.58-2.88,6.93-4.21,2.3-1.31,4.66-2.51,7.02-3.72,2.25-1.16,4.55-2.21,6.89-3.19,2.12-.88,4.24-1.77,6.41-2.56,3.03-1.11,6.08-2.13,9.17-3.04,3.09-.9,6.21-1.71,9.36-2.4,2.02-.44,4.05-.84,6.09-1.22.79-.15,1.59-.28,2.39-.37,2-.21,3.98-.59,5.99-.82,2-.23,4.02-.28,6.02-.54.57-.07,1.15-.07,1.72-.09,5.07-.19,10.13-.21,15.2,0,2.58.11,5.17.32,7.74.6,1.89.21,3.77.47,5.65.74,2.79.41,5.57.84,8.32,1.5,1.96.47,3.94.84,5.88,1.36,2.61.69,5.23,1.37,7.79,2.26,1.96.68,3.94,1.28,5.87,2.02,2.63,1.01,5.25,2.05,7.83,3.18,2.59,1.13,5.11,2.37,7.63,3.65,3.54,1.8,6.98,3.79,10.34,5.9,3.17,1.99,6.25,4.11,9.24,6.37,3.54,2.68,6.96,5.48,10.24,8.47,2.81,2.56,5.52,5.23,8.12,7.99,2.45,2.6,4.81,5.28,7.01,8.09,1.56,1.99,3.12,3.99,4.58,6.06,2,2.82,3.91,5.69,5.71,8.64,2.28,3.74,4.37,7.57,6.28,11.51,1.48,3.06,2.88,6.15,4.1,9.32.92,2.36,1.81,4.73,2.62,7.12,1,2.95,1.81,5.94,2.69,8.92.15.5.24,1.01.37,1.51.41,1.61.82,3.22,1.23,4.84-.05.17-.13.33-.14.5-.08,1.22-.48,2.37-.9,3.5-.74,1.99-1.52,3.98-2.28,5.96-.97,2.52-1.94,5.05-2.9,7.57-.76,1.99-1.52,3.98-2.29,5.96-.81,2.09-1.63,4.18-2.44,6.27-.79,2.04-1.56,4.08-2.34,6.12-.16.43-.37.84-.54,1.27-.72,1.76-1.63,3.43-2.49,5.12-1.18,2.32-2.59,4.49-4.05,6.63-1.4,2.04-2.92,3.99-4.52,5.88-2.13,2.5-4.41,4.85-6.81,7.09-3.11,2.92-6.46,5.55-9.99,7.94-3.29,2.23-6.74,4.18-10.33,5.9-3.38,1.61-6.87,2.95-10.46,4-1.49.43-3,.79-4.52,1.13-2.2.49-4.4.86-6.65.99-.17.01-.34.04-.52.05-1.03.06-2.07.16-3.1.18-1.78.04-3.57.01-5.35.04-6.33.09-12.66.2-19,.28-9.84.12-19.69.14-29.53.35-8.4.18-16.81.23-25.22.34-7.89.11-15.77.22-23.66.33-1.09.01-2.19,0-3.28.02-6.79.09-13.59.19-20.38.29-10.3.15-20.61.12-30.91.36-10.3.24-20.61.13-30.91.37-7.83.18-15.66.22-23.49.33-.4,0-.81,0-1.21.03-1.9.17-3.35,1.13-4.43,2.67-.2.28-.33.61-.44.93-.37,1.01-.35,2.03,0,3.05.42,1.23,1.22,2.05,2.47,2.44.79.25,1.58.26,2.39.27,5.99.06,11.97.07,17.96.21,5.58.13,11.17.14,16.75.2,3.45.04,6.91.09,10.36.14,8.58.12,17.15.25,25.73.38.86.01,1.73.01,2.59.02,6.45.07,12.89.17,19.34.29,10.71.2,21.42.17,32.12.39,10.99.22,21.99.17,32.99.41,7.02.15,14.05.16,21.07.26,8.35.11,16.69.25,25.04.37,2.01.03,4.03.07,6.05.04,1.97-.03,3.89.37,5.85.45,1.79.41,3.62.63,5.38,1.21,1.75.57,3.49,1.16,5.15,1.96,3.84,1.84,7.15,4.35,9.91,7.62,2.87,3.41,4.73,7.32,5.92,11.59.65,2.34.89,4.75,1.08,7.16.22,2.77-.07,5.53-.42,8.27-.26,2.05-.73,4.07-1.3,6.07-.74,2.6-1.44,5.21-2.16,7.82-.26.94-.5,1.89-.77,2.83-.59,2.13-1.88,3.65-3.95,4.48Z"/>
        <path class="cls-4" d="M470.72,245.78c.34-.03.68-.1,1.02-.1,3.57.02,7.14.04,10.71.08.57,0,1.15.07,1.72.12.52.04,1.03.12,1.55.13,2.65.08,5.28.42,7.89.83,2.1.33,4.2.66,6.3,1.01.57.09,1.13.23,1.69.36,1.73.41,3.47.8,5.19,1.26,2.83.76,5.64,1.6,8.41,2.56,2.4.82,4.74,1.76,7.09,2.7,1.71.68,3.38,1.45,5.04,2.26,1.91.93,3.82,1.88,5.68,2.92,2.26,1.26,4.5,2.57,6.68,3.96,2.38,1.52,4.7,3.12,6.96,4.8,2.36,1.75,4.63,3.6,6.85,5.53,3.44,2.99,6.7,6.15,9.75,9.53,1.89,2.09,3.72,4.23,5.46,6.46,1.85,2.36,3.61,4.78,5.28,7.26,1.58,2.34,3.04,4.75,4.45,7.19,2.36,4.09,4.42,8.34,6.24,12.69.93,2.23,1.86,4.46,2.57,6.77.27.88.61,1.74.89,2.61.28.88.5,1.77.78,2.65.91,2.91,1.61,5.88,2.23,8.86.64,3.04,1.13,6.11,1.5,9.2.28,2.35.47,4.7.68,7.05.09.97.16,1.95.17,2.93.03,2.42.03,4.84.04,7.25,0,2.02-.12,4.03-.33,6.03-.22,2.18-.39,4.36-.68,6.52-.3,2.16-.57,4.33-1.05,6.47-.48,2.13-.91,4.28-1.4,6.41-.24,1.06-.63,2.1-.86,3.16-.33,1.5-1.93,2.97-3.93,3.11-.57.04-1.15.02-1.73.02-12.38,0-24.75,0-37.13,0-40.82.02-81.63.04-122.45.05-.69,0-1.38.1-2.06-.1-.31-.34-.66-.65-.92-1.02-.46-.63-.66-1.34-.37-2.12.14-.38.25-.77.39-1.14.82-2.15,1.6-4.32,2.48-6.44.81-1.97,1.5-3.99,2.5-5.88.91-1.73,1.74-3.51,2.74-5.19,1.3-2.17,2.68-4.29,4.2-6.33,1.48-1.99,3.03-3.92,4.7-5.74,1.71-1.87,3.45-3.7,5.34-5.4.81-.73,1.57-1.53,2.42-2.22,1.88-1.52,3.74-3.06,5.73-4.44.99-.69,1.96-1.42,2.99-2.05,1.61-1,3.26-1.95,4.91-2.89.95-.54,1.96-.97,2.91-1.51,1.86-1.05,3.85-1.82,5.82-2.61,2.29-.92,4.62-1.75,7.04-2.31,1.23-.29,2.44-.71,3.68-.93,2.43-.43,4.87-.89,7.36-.9.29,0,.58,0,.86-.05,1.37-.24,2.75-.21,4.13-.29.75-.04,1.49-.11,2.24-.16,2.01-.13,4.02-.27,6.03-.38,1.26-.07,2.54-.06,3.79-.19,1.09-.11,2.18-.17,3.27-.21,1.09-.04,2.19-.02,3.28-.15,1.26-.15,2.52-.19,3.79-.24.92-.04,1.85,0,2.76-.11,1.66-.22,3.33-.23,5-.31.4-.02.81-.04,1.21-.07,2.29-.2,4.59-.4,6.89-.48,1.73-.06,3.45-.16,5.17-.33,1.82-.18,3.07-1.19,4.15-2.52.11-.13.17-.3.25-.45.5-.9.49-1.88.4-2.86-.14-1.64-1.26-2.9-2.88-3.25-.73-.16-1.47-.26-2.22-.28-1.04-.03-2.07-.09-3.1-.16-1.72-.13-3.44-.32-5.16-.41-2.24-.12-4.48-.17-6.72-.37-2-.18-4.02-.16-6.03-.35-2.4-.22-4.83-.18-7.24-.41-2.12-.2-4.25-.27-6.38-.4-.23-.01-.46-.02-.69-.06-.91-.18-1.83-.17-2.75-.2-1.09-.04-2.19-.02-3.28-.15-1.26-.15-2.53-.18-3.79-.27-1.61-.12-3.2-.3-4.79-.6-1.42-.26-2.79-.7-4.18-1.05-2.03-.51-3.87-1.44-5.76-2.29-.1-.05-.2-.11-.3-.17-1.37-.84-2.78-1.61-4.06-2.61-1.19-.92-2.3-1.93-3.35-2.98-1.33-1.35-2.49-2.87-3.51-4.48-1.49-2.35-2.55-4.89-3.37-7.54-.51-1.66-.78-3.36-1.07-5.06-.11-.68-.2-1.37-.23-2.06-.17-3.34-.09-6.66.5-9.98.43-2.38.92-4.74,1.63-7.05.7-2.31,1.33-4.64,2-6.97.43-1.49.84-2.99,1.28-4.48.7-2.43,1.42-4.86,2.12-7.29.85-2.99,1.69-5.98,2.53-8.97.23-.8.66-1.46,1.3-1.99.35-.3.73-.57,1.17-.73Z"/>
        <path class="cls-3" d="M470.72,245.78c-.44.16-.81.43-1.17.73-.63.53-1.07,1.19-1.3,1.99-.84,2.99-1.68,5.98-2.53,8.97-.7,2.43-1.42,4.86-2.12,7.29-.43,1.49-.85,2.99-1.28,4.48-.66,2.32-1.29,4.66-2,6.97-.7,2.32-1.2,4.67-1.63,7.05-.6,3.32-.67,6.64-.5,9.98.03.69.12,1.38.23,2.06.29,1.7.56,3.4,1.07,5.06.82,2.65,1.88,5.19,3.37,7.54,1.02,1.61,2.18,3.13,3.51,4.48,1.05,1.06,2.16,2.06,3.35,2.98,1.28,1,2.69,1.77,4.06,2.61.1.06.2.12.3.17,1.89.84,3.74,1.78,5.76,2.29,1.39.35,2.76.79,4.18,1.05,1.59.3,3.18.48,4.79.6,1.26.09,2.53.13,3.79.27,1.08.13,2.18.1,3.28.15.92.03,1.84.02,2.75.2.22.04.46.05.69.06,2.13.13,4.26.19,6.38.4,2.41.23,4.83.19,7.24.41,2.01.18,4.03.17,6.03.35,2.24.2,4.48.26,6.72.37,1.72.09,3.44.29,5.16.41,1.03.08,2.07.13,3.1.16.75.02,1.49.13,2.22.28,1.62.35,2.74,1.61,2.88,3.25.09.98.09,1.96-.4,2.86-.08.15-.14.32-.25.45-1.08,1.33-2.33,2.34-4.15,2.52-1.72.17-3.44.27-5.17.33-2.3.08-4.59.28-6.89.48-.4.03-.8.05-1.21.07-1.67.07-3.33.09-5,.31-.91.12-1.84.08-2.76.11-1.26.05-2.53.08-3.79.24-1.08.13-2.18.11-3.28.15-1.09.04-2.18.09-3.27.21-1.26.13-2.53.11-3.79.19-2.01.12-4.02.25-6.03.38-.75.05-1.49.12-2.24.16-1.38.08-2.76.05-4.13.29-.28.05-.57.05-.86.05-2.49.01-4.92.47-7.36.9-1.24.22-2.45.64-3.68.93-2.42.56-4.75,1.4-7.04,2.31-1.97.79-3.96,1.57-5.82,2.61-.95.53-1.96.97-2.91,1.51-1.65.94-3.3,1.89-4.91,2.89-1.03.63-1.99,1.36-2.99,2.05-1.99,1.38-3.85,2.92-5.73,4.44-.85.69-1.6,1.49-2.42,2.22-1.89,1.69-3.64,3.53-5.34,5.4-1.67,1.83-3.22,3.75-4.7,5.74-1.51,2.04-2.9,4.16-4.2,6.33-1,1.68-1.83,3.46-2.74,5.19-1,1.89-1.69,3.91-2.5,5.88-.88,2.13-1.66,4.29-2.48,6.44-.14.38-.25.77-.39,1.14-.29.78-.09,1.48.37,2.12.27.37.61.68.92,1.02-.51.01-1.03.04-1.54.04-5.2,0-10.39,0-15.59,0-.63,0-1.26-.03-1.88-.04,2.07-.83,3.36-2.35,3.95-4.48.26-.94.51-1.89.77-2.83.72-2.61,1.42-5.22,2.16-7.82.57-2,1.04-4.02,1.3-6.07.35-2.74.64-5.5.42-8.27-.19-2.41-.43-4.82-1.08-7.16-1.19-4.26-3.05-8.17-5.92-11.59-2.75-3.27-6.07-5.78-9.91-7.62-1.66-.8-3.4-1.39-5.15-1.96-1.76-.58-3.59-.8-5.38-1.21-1.96-.07-3.88-.47-5.85-.45-2.01.03-4.03-.01-6.05-.04-8.35-.12-16.69-.26-25.04-.37-7.02-.09-14.05-.11-21.07-.26-10.99-.24-21.99-.19-32.99-.41-10.71-.21-21.42-.19-32.12-.39-6.45-.12-12.89-.21-19.34-.29-.86,0-1.73,0-2.59-.02-8.58-.13-17.15-.25-25.73-.38-3.45-.05-6.91-.1-10.36-.14-5.58-.07-11.17-.07-16.75-.2-5.99-.14-11.97-.15-17.96-.21-.81,0-1.6-.02-2.39-.27-1.25-.4-2.05-1.22-2.47-2.44-.35-1.02-.36-2.04,0-3.05.12-.32.25-.65.44-.93,1.08-1.53,2.53-2.49,4.43-2.67.4-.04.81-.03,1.21-.03,7.83-.1,15.66-.14,23.49-.33,10.3-.24,20.61-.14,30.91-.37,10.3-.24,20.61-.21,30.91-.36,6.79-.1,13.59-.19,20.38-.29,1.09-.02,2.19,0,3.28-.02,7.89-.11,15.77-.22,23.66-.33,8.41-.11,16.81-.16,25.22-.34,9.84-.21,19.69-.22,29.53-.35,6.33-.08,12.66-.19,19-.28,1.78-.03,3.57,0,5.35-.04,1.03-.02,2.07-.12,3.1-.18.17-.01.34-.04.52-.05,2.25-.14,4.45-.5,6.65-.99,1.52-.34,3.03-.69,4.52-1.13,3.59-1.05,7.08-2.38,10.46-4,3.59-1.71,7.04-3.67,10.33-5.9,3.53-2.39,6.87-5.02,9.99-7.94,2.4-2.24,4.68-4.59,6.81-7.09,1.61-1.89,3.13-3.84,4.52-5.88,1.46-2.13,2.87-4.31,4.05-6.63.86-1.69,1.77-3.36,2.49-5.12.17-.43.38-.84.54-1.27.78-2.04,1.55-4.09,2.34-6.12.81-2.09,1.63-4.18,2.44-6.27.77-1.98,1.53-3.97,2.29-5.96.97-2.52,1.94-5.05,2.9-7.57.76-1.99,1.54-3.97,2.28-5.96.42-1.13.82-2.27.9-3.5.01-.17.09-.33.14-.5.23.32.47.64.68.97,1.47,2.35,3.63,3.7,6.3,4.3,1.17.26,2.36.4,3.56.42.57,0,1.14.05,1.71.08Z"/>
      </g>
    </g>
  </g>
</svg>