<?xml version="1.0" encoding="UTF-8"?>
<svg id="Layer_2" data-name="Layer 2" xmlns="http://www.w3.org/2000/svg" viewBox="0 0 597.71 597.71">
  <defs>
    <style>
      .cls-1 {
        fill: #f38020;
      }

      .cls-1, .cls-2, .cls-3, .cls-4 {
        stroke-width: 0px;
      }

      .cls-2 {
        fill: none;
      }

      .cls-3 {
        fill: #fffefd;
      }

      .cls-4 {
        fill: #faae40;
      }
    </style>
  </defs>
  <g id="Layer_1-2" data-name="Layer 1">
    <rect class="cls-2" x="0" width="597.71" height="597.71"/>
    <line class="cls-2" x1="453.53" y1="269.77" x2="461.21" y2="273.19"/>
    <g>
      <path class="cls-1" d="M404.41,433.92c-.29.04-.57.1-.86.11-.82.02-1.63,0-2.45,0-81.81,0-163.62,0-245.44,0-49.64,0-99.27-.03-148.91-.05-.58,0-1.17.02-1.75-.02-1.28-.09-2.36-.59-3.18-1.61-.33-.41-.62-.85-.74-1.37-.1-.45-.26-.91-.29-1.37-.08-1.46-.28-2.91-.4-4.36-.33-3.96-.53-7.93-.28-11.9.14-2.15.16-4.32.51-6.46.18-1.09.24-2.2.39-3.3.3-2.14.76-4.25,1.2-6.36.61-2.92,1.44-5.77,2.38-8.6.81-2.44,1.71-4.84,2.72-7.2.83-1.93,1.73-3.83,2.67-5.71,1.15-2.3,2.45-4.51,3.81-6.69,1.86-2.97,3.87-5.84,6.08-8.56,2.1-2.59,4.3-5.08,6.66-7.43,1.53-1.53,3.1-3.01,4.74-4.42,1.77-1.52,3.55-3.03,5.47-4.36,1.1-.76,2.18-1.57,3.29-2.32,3.68-2.5,7.53-4.68,11.54-6.6,4.86-2.32,9.88-4.17,15.06-5.61,3.49-.97,7.05-1.6,10.61-2.24,1.84-.33,3.72-.35,5.56-.66.63-.1,1.28-.07,1.92-.1.82-.03,1.63-.06,2.45-.1.47-.03.74-.38.62-.85-.44-1.7-.78-3.41-1-5.15-.09-.69-.2-1.39-.26-2.08-.14-1.63-.4-3.25-.38-4.89.02-2.16-.03-4.32.03-6.48.06-2.22.36-4.42.68-6.61.48-3.19,1.28-6.29,2.23-9.35.85-2.74,1.9-5.4,3.18-7.96,1.01-2.03,2.09-4.04,3.3-5.98,1.64-2.63,3.5-5.1,5.42-7.52.51-.64,1.09-1.22,1.64-1.82,1.34-1.46,2.74-2.86,4.2-4.21,1.68-1.55,3.47-2.95,5.27-4.33,1.06-.81,2.2-1.54,3.32-2.27,2.98-1.96,6.14-3.6,9.41-5.02,2.68-1.16,5.44-2.1,8.26-2.86,1.69-.45,3.39-.86,5.12-1.17,1.03-.19,2.07-.36,3.11-.48,4.83-.56,9.66-.71,14.51-.19,2.15.23,4.29.52,6.41.92,1.49.29,2.95.7,4.42,1.08,3.23.83,6.33,2.02,9.37,3.39,3.74,1.68,7.26,3.73,10.63,6.06.33.23.7.42,1.06.6.07.03.25-.03.3-.1.15-.25.3-.51.39-.78,1.02-2.98,2.17-5.92,3.41-8.81.89-2.09,1.8-4.18,2.84-6.2.54-1.04,1.01-2.1,1.56-3.14.93-1.76,1.85-3.51,2.84-5.23,1.31-2.28,2.63-4.55,4.1-6.73.85-1.26,1.67-2.53,2.53-3.79,1.41-2.08,2.91-4.09,4.45-6.07,2.33-3,4.78-5.89,7.32-8.71,2.66-2.95,5.47-5.76,8.36-8.47,2.69-2.51,5.47-4.93,8.37-7.19,3.59-2.8,7.27-5.48,11.1-7.95,2.31-1.49,4.65-2.92,7.03-4.27,2.33-1.33,4.73-2.54,7.11-3.77,2.28-1.18,4.62-2.25,6.99-3.23,2.15-.9,4.3-1.8,6.5-2.6,3.07-1.12,6.16-2.16,9.3-3.08,3.14-.92,6.3-1.74,9.49-2.43,2.05-.45,4.11-.85,6.18-1.23.8-.15,1.61-.29,2.42-.37,2.03-.21,4.04-.6,6.07-.83,2.03-.23,4.08-.29,6.1-.55.58-.08,1.17-.07,1.75-.09,5.14-.19,10.28-.21,15.41,0,2.62.11,5.24.32,7.85.61,1.92.21,3.82.47,5.73.75,2.83.42,5.65.86,8.44,1.52,1.98.48,3.99.85,5.96,1.38,2.65.7,5.3,1.39,7.9,2.29,1.98.69,3.99,1.3,5.95,2.05,2.67,1.02,5.32,2.08,7.94,3.23,2.62,1.15,5.19,2.41,7.73,3.7,3.59,1.83,7.08,3.84,10.49,5.98,3.22,2.02,6.34,4.17,9.37,6.46,3.59,2.71,7.06,5.56,10.39,8.59,2.85,2.6,5.6,5.3,8.24,8.11,2.48,2.64,4.88,5.35,7.11,8.21,1.58,2.02,3.16,4.05,4.65,6.14,2.03,2.86,3.97,5.77,5.79,8.77,2.31,3.79,4.44,7.68,6.37,11.67,1.5,3.1,2.92,6.24,4.16,9.45.93,2.39,1.83,4.79,2.66,7.23,1.01,2.99,1.84,6.03,2.73,9.05.15.5.24,1.02.37,1.53.41,1.64.83,3.27,1.25,4.91-.05.17-.13.33-.14.51-.08,1.24-.48,2.4-.91,3.55-.75,2.02-1.54,4.03-2.31,6.05-.98,2.56-1.96,5.12-2.95,7.68-.77,2.01-1.54,4.03-2.32,6.04-.82,2.12-1.66,4.24-2.48,6.36-.8,2.07-1.58,4.14-2.37,6.21-.17.43-.37.85-.55,1.28-.73,1.78-1.66,3.48-2.53,5.19-1.2,2.35-2.62,4.56-4.11,6.72-1.42,2.07-2.96,4.05-4.59,5.96-2.16,2.54-4.48,4.92-6.91,7.19-3.16,2.96-6.55,5.63-10.13,8.05-3.34,2.26-6.84,4.24-10.48,5.98-3.43,1.64-6.97,2.99-10.61,4.05-1.51.44-3.04.8-4.58,1.14-2.23.5-4.47.87-6.74,1.01-.17.01-.35.04-.52.05-1.05.06-2.1.16-3.14.18-1.81.04-3.62.01-5.43.04-6.42.09-12.84.21-19.26.29-9.98.13-19.97.14-29.95.35-8.52.18-17.05.23-25.57.34-8,.11-16,.22-23.99.33-1.11.02-2.22,0-3.33.02-6.89.1-13.78.19-20.67.29-10.45.15-20.9.12-31.35.36-10.45.24-20.9.14-31.35.38-7.94.18-15.88.23-23.82.33-.41,0-.82,0-1.23.03-1.93.18-3.4,1.15-4.5,2.7-.2.28-.33.62-.45.94-.37,1.03-.36,2.06,0,3.09.43,1.24,1.24,2.07,2.51,2.48.8.25,1.61.26,2.42.27,6.07.06,12.14.07,18.21.22,5.66.13,11.33.14,16.99.2,3.5.04,7.01.09,10.51.14,8.7.13,17.4.26,26.09.38.88.01,1.75.01,2.63.02,6.54.07,13.08.17,19.61.29,10.86.2,21.72.17,32.58.39,11.15.22,22.3.17,33.45.41,7.12.15,14.24.17,21.37.26,8.46.11,16.93.25,25.39.37,2.04.03,4.09.07,6.13.04,1.99-.03,3.95.38,5.93.45,1.82.42,3.67.64,5.46,1.22,1.78.58,3.54,1.18,5.23,1.99,3.9,1.87,7.26,4.41,10.05,7.73,2.91,3.46,4.8,7.43,6,11.75.66,2.37.9,4.82,1.09,7.26.22,2.81-.07,5.6-.42,8.38-.26,2.08-.74,4.13-1.32,6.16-.75,2.64-1.46,5.28-2.19,7.93-.26.96-.51,1.92-.78,2.87-.6,2.16-1.91,3.7-4.01,4.55Z"/>
      <path class="cls-4" d="M473.14,281.28c.35-.03.69-.1,1.04-.1,3.62.02,7.24.05,10.86.08.58,0,1.16.07,1.75.12.52.04,1.05.12,1.57.13,2.69.08,5.35.43,8,.84,2.13.33,4.26.67,6.39,1.03.57.1,1.14.23,1.71.37,1.76.42,3.52.81,5.27,1.28,2.87.77,5.72,1.63,8.53,2.59,2.43.84,4.81,1.79,7.19,2.73,1.73.69,3.43,1.47,5.11,2.29,1.94.94,3.88,1.91,5.76,2.96,2.29,1.28,4.56,2.6,6.77,4.02,2.41,1.54,4.76,3.17,7.06,4.87,2.39,1.77,4.7,3.65,6.95,5.61,3.48,3.03,6.79,6.24,9.89,9.66,1.92,2.12,3.77,4.29,5.54,6.55,1.87,2.39,3.66,4.84,5.36,7.36,1.6,2.37,3.08,4.81,4.51,7.29,2.39,4.15,4.48,8.45,6.32,12.87.94,2.26,1.88,4.52,2.61,6.87.27.89.62,1.76.9,2.65.28.89.51,1.79.79,2.68.93,2.95,1.63,5.96,2.27,8.99.65,3.08,1.15,6.19,1.52,9.32.28,2.38.48,4.76.69,7.15.09.99.16,1.98.18,2.97.04,2.45.03,4.9.04,7.36,0,2.05-.13,4.08-.33,6.12-.22,2.21-.39,4.42-.69,6.62-.3,2.19-.58,4.4-1.07,6.56-.49,2.16-.92,4.34-1.41,6.5-.25,1.08-.64,2.13-.87,3.21-.33,1.52-1.96,3.02-3.99,3.15-.58.04-1.17.02-1.75.02-12.55,0-25.1,0-37.65,0-41.39.02-82.78.04-124.17.05-.7,0-1.4.1-2.09-.11-.32-.34-.67-.66-.94-1.04-.47-.64-.66-1.36-.37-2.15.14-.38.25-.78.4-1.16.83-2.18,1.62-4.38,2.51-6.53.82-1.99,1.52-4.04,2.53-5.96.93-1.76,1.77-3.56,2.78-5.26,1.32-2.2,2.72-4.35,4.26-6.42,1.5-2.02,3.07-3.97,4.76-5.82,1.73-1.9,3.5-3.76,5.42-5.47.83-.74,1.59-1.55,2.45-2.25,1.9-1.54,3.79-3.11,5.81-4.5,1.01-.7,1.99-1.44,3.03-2.08,1.64-1.01,3.3-1.98,4.98-2.93.96-.55,1.98-.99,2.95-1.53,1.89-1.06,3.9-1.85,5.9-2.65,2.32-.93,4.69-1.78,7.14-2.34,1.25-.29,2.47-.72,3.73-.94,2.47-.44,4.94-.91,7.46-.92.29,0,.59,0,.87-.05,1.39-.24,2.79-.21,4.19-.29.76-.04,1.51-.11,2.27-.16,2.04-.13,4.08-.27,6.12-.39,1.28-.07,2.57-.06,3.85-.19,1.11-.11,2.21-.17,3.32-.21,1.11-.04,2.22-.02,3.32-.15,1.28-.15,2.56-.19,3.84-.24.93-.04,1.88,0,2.8-.11,1.68-.22,3.38-.24,5.07-.31.41-.02.82-.04,1.22-.07,2.33-.2,4.65-.4,6.98-.48,1.75-.06,3.5-.16,5.24-.34,1.84-.18,3.11-1.21,4.21-2.56.11-.13.17-.3.25-.46.5-.92.5-1.91.41-2.9-.14-1.66-1.28-2.94-2.92-3.29-.74-.16-1.49-.26-2.25-.29-1.05-.03-2.1-.09-3.15-.16-1.75-.13-3.49-.33-5.23-.42-2.27-.12-4.55-.17-6.82-.38-2.03-.18-4.08-.17-6.12-.35-2.44-.22-4.9-.18-7.34-.42-2.15-.2-4.31-.27-6.47-.4-.23-.01-.47-.02-.7-.06-.92-.18-1.86-.17-2.79-.2-1.11-.04-2.22-.02-3.32-.15-1.28-.15-2.56-.18-3.84-.28-1.63-.12-3.25-.31-4.86-.61-1.44-.27-2.83-.71-4.24-1.06-2.05-.52-3.93-1.46-5.84-2.32-.11-.05-.21-.11-.3-.17-1.39-.85-2.82-1.64-4.12-2.65-1.2-.94-2.33-1.95-3.39-3.02-1.35-1.37-2.53-2.91-3.56-4.54-1.51-2.38-2.59-4.96-3.42-7.65-.52-1.68-.79-3.41-1.08-5.13-.12-.69-.2-1.39-.23-2.09-.17-3.39-.1-6.76.51-10.12.44-2.42.94-4.8,1.65-7.15.71-2.34,1.35-4.71,2.02-7.06.43-1.51.86-3.03,1.29-4.54.71-2.47,1.44-4.93,2.15-7.4.87-3.03,1.71-6.06,2.57-9.09.23-.81.67-1.48,1.32-2.02.36-.3.74-.58,1.18-.74Z"/>
      <path class="cls-3" d="M473.14,281.28c-.45.16-.83.44-1.18.74-.64.54-1.09,1.21-1.32,2.02-.85,3.03-1.7,6.06-2.57,9.09-.71,2.47-1.44,4.93-2.15,7.4-.44,1.51-.86,3.03-1.29,4.54-.67,2.36-1.31,4.72-2.02,7.06-.71,2.35-1.21,4.74-1.65,7.15-.61,3.36-.68,6.73-.51,10.12.04.7.12,1.4.23,2.09.29,1.72.57,3.45,1.08,5.13.83,2.69,1.9,5.27,3.42,7.65,1.04,1.63,2.21,3.17,3.56,4.54,1.06,1.07,2.19,2.09,3.39,3.02,1.3,1.01,2.73,1.79,4.12,2.65.1.06.2.13.3.17,1.91.86,3.79,1.8,5.84,2.32,1.41.35,2.8.8,4.24,1.06,1.61.3,3.23.49,4.86.61,1.28.09,2.56.13,3.84.28,1.1.13,2.21.11,3.32.15.93.03,1.87.02,2.79.2.23.04.46.05.7.06,2.16.13,4.32.2,6.47.4,2.44.23,4.9.19,7.34.42,2.04.19,4.08.17,6.12.35,2.27.21,4.54.26,6.82.38,1.75.09,3.49.29,5.23.42,1.05.08,2.1.13,3.15.16.76.03,1.51.13,2.25.29,1.64.35,2.78,1.63,2.92,3.29.09,1,.09,1.99-.41,2.9-.08.15-.14.32-.25.46-1.1,1.35-2.36,2.38-4.21,2.56-1.75.17-3.49.28-5.24.34-2.33.08-4.66.28-6.98.48-.41.03-.82.05-1.22.07-1.69.07-3.38.09-5.07.31-.92.12-1.87.08-2.8.11-1.28.05-2.56.09-3.84.24-1.1.13-2.21.11-3.32.15-1.11.04-2.21.1-3.32.21-1.28.13-2.57.12-3.85.19-2.04.12-4.08.26-6.12.39-.76.05-1.51.12-2.27.16-1.4.08-2.8.05-4.19.29-.29.05-.58.05-.87.05-2.52.01-4.99.48-7.46.92-1.26.22-2.48.65-3.73.94-2.45.57-4.82,1.42-7.14,2.34-2,.8-4.01,1.59-5.9,2.65-.97.54-1.99.98-2.95,1.53-1.68.95-3.34,1.91-4.98,2.93-1.04.64-2.02,1.38-3.03,2.08-2.02,1.4-3.9,2.96-5.81,4.5-.86.7-1.63,1.51-2.45,2.25-1.92,1.72-3.69,3.58-5.42,5.47-1.69,1.85-3.26,3.81-4.76,5.82-1.53,2.07-2.94,4.22-4.26,6.42-1.02,1.7-1.86,3.51-2.78,5.26-1.01,1.92-1.71,3.96-2.53,5.96-.89,2.16-1.68,4.35-2.51,6.53-.15.38-.26.78-.4,1.16-.29.79-.09,1.5.37,2.15.27.37.62.69.94,1.04-.52.02-1.04.04-1.56.04-5.27,0-10.54,0-15.8,0-.64,0-1.27-.03-1.91-.05,2.1-.85,3.41-2.38,4.01-4.55.26-.96.51-1.92.78-2.87.73-2.64,1.44-5.29,2.19-7.93.58-2.02,1.05-4.07,1.32-6.16.35-2.78.65-5.58.42-8.38-.19-2.44-.43-4.88-1.09-7.26-1.2-4.32-3.09-8.29-6-11.75-2.79-3.32-6.15-5.86-10.05-7.73-1.69-.81-3.45-1.4-5.23-1.99-1.79-.59-3.64-.81-5.46-1.22-1.98-.07-3.94-.48-5.93-.45-2.04.03-4.09-.02-6.13-.04-8.46-.12-16.93-.26-25.39-.37-7.12-.1-14.25-.11-21.37-.26-11.15-.24-22.3-.19-33.45-.41-10.86-.22-21.72-.19-32.58-.39-6.54-.12-13.08-.22-19.61-.29-.88,0-1.75,0-2.63-.02-8.7-.13-17.4-.26-26.09-.38-3.5-.05-7.01-.1-10.51-.14-5.66-.07-11.33-.07-16.99-.2-6.07-.14-12.14-.16-18.21-.22-.82,0-1.63-.02-2.42-.27-1.27-.41-2.08-1.24-2.51-2.48-.35-1.03-.37-2.06,0-3.09.12-.33.25-.66.45-.94,1.1-1.56,2.57-2.53,4.5-2.7.41-.04.82-.03,1.23-.03,7.94-.11,15.88-.15,23.82-.33,10.45-.24,20.9-.14,31.35-.38,10.45-.24,20.9-.21,31.35-.36,6.89-.1,13.78-.2,20.67-.29,1.11-.02,2.22,0,3.33-.02,8-.11,16-.23,23.99-.33,8.52-.11,17.05-.16,25.57-.34,9.98-.21,19.97-.23,29.95-.35,6.42-.08,12.84-.2,19.26-.29,1.81-.03,3.62,0,5.43-.04,1.05-.02,2.1-.12,3.14-.18.17-.01.35-.04.52-.05,2.28-.14,4.52-.51,6.74-1.01,1.54-.34,3.07-.7,4.58-1.14,3.65-1.06,7.18-2.42,10.61-4.05,3.64-1.74,7.14-3.72,10.48-5.98,3.58-2.43,6.97-5.09,10.13-8.05,2.43-2.28,4.74-4.65,6.91-7.19,1.63-1.92,3.17-3.9,4.59-5.96,1.48-2.16,2.91-4.37,4.11-6.72.87-1.72,1.8-3.41,2.53-5.19.18-.43.39-.85.55-1.28.8-2.07,1.58-4.14,2.37-6.21.82-2.12,1.66-4.24,2.48-6.36.78-2.01,1.55-4.03,2.32-6.04.98-2.56,1.96-5.12,2.95-7.68.77-2.01,1.56-4.03,2.31-6.05.43-1.15.83-2.31.91-3.55.01-.17.09-.34.14-.51.23.33.48.64.69.98,1.5,2.39,3.68,3.75,6.39,4.36,1.19.27,2.39.41,3.61.42.58,0,1.15.05,1.73.08Z"/>
    </g>
  </g>
</svg>