<?xml version="1.0" encoding="UTF-8"?>
<svg id="Layer_2" data-name="Layer 2" xmlns="http://www.w3.org/2000/svg" viewBox="0 0 615.8 490.84">
  <defs>
    <style>
      .cls-1 {
        fill: #dee0e0;
      }

      .cls-1, .cls-2, .cls-3, .cls-4, .cls-5 {
        stroke-width: 0px;
      }

      .cls-2 {
        fill: #f9f9fa;
      }

      .cls-3 {
        fill: #c1ccd6;
      }

      .cls-4 {
        fill: #a5b6c3;
      }

      .cls-5 {
        fill: #dce2e6;
      }
    </style>
  </defs>
  <g id="Layer_1-2" data-name="Layer 1">
    <path class="cls-4" d="M448.73,363.94c.31.28.61.56.92.84,2.71,2.68,5.41,5.37,8.12,8.05.62.65,1.24,1.3,1.85,1.95,1.71,2.33,3.43,4.66,5.14,6.98,0,0-.03,0-.03,0,.33.66.65,1.33.98,1.99.98,1.67,1.97,3.34,2.95,5.01l2,3.98c1.7,8.06,4.07,16.06,4.93,24.21,1.03,9.82-1.77,19.32-4.83,28.63-1.36,2.68-2.72,5.35-4.07,8.03-2.98,4.3-5.95,8.6-8.93,12.9-5.06,4.55-10.13,9.1-15.19,13.65-5.28,2.43-10.56,4.86-15.84,7.29-5.48,1.06-10.96,3-16.45,3.03-53.47.24-106.94.16-160.41.19-2.66,0-5.32.12-7.98.19-1.33,0-2.66,0-3.99,0-1,0-2,0-3.01,0-8.47-.1-16.96-.52-25.42-.22-7.27.26-13.68-2.63-20.25-4.73-5.4-1.73-10.46-4.61-15.57-7.17-2.63-1.32-5.34-2.73-7.52-4.66-8.58-7.62-16.98-15.23-22.49-25.8-4.06-7.78-7.57-15.62-9.85-24.01-1.2-4.41-1.94-8.96-2.7-13.48-.3-1.78-.38-3.69-.08-5.46,1.37-7.98,2.7-15.98,4.45-23.89,2.09-9.43,6.71-17.84,12.32-25.55,3.91-5.38,8.74-10.09,13.15-15.1,1.36-1.33,2.72-2.67,4.08-4,2.97-1.99,5.95-3.97,8.92-5.96,1.48-.96,2.96-1.93,4.45-2.89,1.51-.39,3.02-.78,4.52-1.17.68-.32,1.35-.63,2.03-.95.69-.27,1.37-.53,2.06-.8,2.37-.7,4.74-1.41,7.1-2.11l2.81-.93c1.67-.17,3.33-.33,5-.5,4.92-.01,7.68-2.39,10.35-6.73,4.38-7.15,9.79-13.76,15.37-20.05,8.13-9.16,18.54-15.41,29.24-21.14,13.82-6.99,28.45-9.68,43.91-8.94,11.26.54,22.57-.54,33.66,2.74,14.61,4.32,27.33,11.9,39.04,21.41,14.57,11.84,24.42,27.01,31.14,44.36.23.6.65,1.14.98,1.71q3.1,13.69,16.68,15.95c.48.08.98.11,1.47.16,6.99,3.34,13.98,6.69,20.97,10.03.35.29.69.58,1.04.87.99.71,1.98,1.41,2.96,2.12ZM275.15,447.61c1.99,0,3.61,0,5.23,0,15.66.01,31.32.03,46.98.03,5.37,0,5.45-.08,5.45-5.71.02-15.15,0-30.31,0-45.46,0-1.77,0-3.53,0-5.94h40.65c.21-.44.43-.89.64-1.33-23.34-22.85-46.68-45.7-70.37-68.89-23.03,23.79-47.67,45.3-69.55,69.88,1.83.55,3.41.55,5,.55,10,.02,19.99.02,29.99.06,5.58.02,5.62.06,5.63,5.45.05,15.15.05,30.31.1,45.46,0,1.78.15,3.56.26,5.91Z"/>
    <path class="cls-5" d="M526.84,334.23c-2.38-.64-3.89-.83-5.22-1.43-10.7-4.82-21.39-9.66-32.03-14.62-5.38-2.51-10.65-5.26-15.96-7.92-14.07-7.05-28.12-14.12-42.19-21.18-9.92-4.97-19.91-9.82-29.75-14.94-4.39-2.28-8.44-5.22-12.77-7.63-2.85-1.58-3.66-3.38-2.3-6.48,3.66-8.32,6.77-16.89,10.73-25.06,8.68-17.94,17.79-35.68,26.65-53.53,5.96-12.02,11.67-24.15,17.68-36.14,7.71-15.39,15.54-30.72,23.49-45.99,1.9-3.66,4.29-7.11,6.79-10.39.73-.95,2.86-1.68,4-1.34,5.53,1.64,11.15,3.23,16.36,5.66,14.15,6.61,28.16,13.56,42.14,20.54,13.21,6.6,26.3,13.45,39.47,20.13,10.49,5.32,21.05,10.5,31.51,15.87,2.63,1.35,5.06,3.13,7.5,4.84,2.59,1.82,3.61,4.21,2.3,7.36-2.16,5.2-3.95,10.58-6.42,15.62-7.78,15.93-15.8,31.74-23.73,47.59-7.72,15.43-15.49,30.83-23.14,46.28-6.03,12.19-11.76,24.54-17.94,36.65-3.76,7.38-8,14.53-12.31,21.6-1.16,1.91-3.38,3.17-4.85,4.5ZM535.99,224.54c-10.84,1.94-20.63,3.7-31.13,5.58-3.76-14.48-7.38-28.36-11.13-42.8-3.17,2.23-5.44,3.84-7.73,5.42-8.84,6.09-17.8,12.02-26.48,18.33-3.37,2.45-7.01,5.09-7.74,10.2,3.34,2.01,6.48,4.19,9.86,5.89,17.8,8.99,35.65,17.86,53.49,26.77,1.04.52,2.08,1.42,3.13,1.44,1.25.02,3.15-.35,3.67-1.21,5.52-9.04,10.41-18.41,14.05-29.61ZM531.53,192.82c-7.53.01-8.74,1.12-8.73,7.95,0,6.19,1.95,8.04,8.48,8.05,5.93,0,7.52-2,7.51-9.49q0-6.52-7.25-6.51Z"/>
    <path class="cls-3" d="M408.2,37.49c-1.5,9.81-2.84,19.64-4.52,29.41-2.8,16.29-5.84,32.54-8.74,48.81-4.67,26.2-9.26,52.41-13.98,78.6-1.85,10.25-3.86,20.47-6.02,30.65-.58,2.71-1.81,5.33-3.09,7.81-1.57,3.04-3.7,4.23-7.69,3.51-19.03-3.44-38.17-6.26-57.23-9.51-15.81-2.69-31.56-5.7-47.35-8.51-12.37-2.2-24.77-4.24-37.13-6.46-3.57-.64-7.15-1.44-10.6-2.56-6.02-1.95-8.85-6.23-7.83-12.47,2.29-14.03,4.88-28,7.35-42,2.84-16.11,5.68-32.22,8.54-48.33,2.66-14.97,5.38-29.93,8-44.9,2.05-11.72,3.88-23.48,6.01-35.18,1.21-6.67,2.69-13.3,4.28-19.89,1.23-5.1,5.24-7.16,11.14-6.3,15.86,2.3,31.76,4.37,47.6,6.84,13.72,2.14,27.39,4.62,41.05,7.11,17.41,3.17,34.8,6.44,52.17,9.79,4.38.84,8.72,1.99,13.01,3.25,5.36,1.57,4.79,6.08,5.05,10.31ZM346.27,165.29c.72-2.57,1.3-4.13,1.59-5.74,3.04-16.88,6.28-33.74,8.94-50.68,1.83-11.62,1.53-11.96-10.09-14.44-11.78-2.51-23.69-4.39-35.55-6.54-3.33-.6-6.39-.99-6.55-5.75-.12-3.65-2.04-6.25-6.63-6.51-5.06-.28-10.05-1.83-15.11-2.44-1.37-.17-3.23.67-4.31,1.66-3.18,2.9-5.86,6.11-10.8,6.49-1.71.13-3.65,2.8-4.68,4.74-1.2,2.29-1.68,5.01-2.19,7.59-1.95,9.87-3.88,19.75-5.65,29.66-1.25,6.98-2.32,14-3.31,21.02-.43,3.08.93,4.95,4.23,5.57,11.68,2.21,23.3,4.72,34.99,6.86,11.36,2.08,22.76,3.91,34.17,5.7,6.82,1.07,13.68,1.84,20.95,2.8Z"/>
    <path class="cls-5" d="M63.58,318.4c-1.27-1.08-3.19-1.98-3.9-3.45-3.08-6.4-6.2-12.83-8.6-19.51-6.39-17.79-12.44-35.7-18.59-53.57-8.02-23.32-16.13-46.6-23.93-69.99-3.09-9.25-5.39-18.76-8.17-28.12-.98-3.3-.17-5.45,3.1-6.7,7.89-3.01,15.69-6.25,23.64-9.08,16.07-5.71,32.17-11.35,48.35-16.75,13.03-4.35,26.22-8.25,39.31-12.44,7.89-2.52,15.68-5.37,23.6-7.78,5.32-1.62,5.74-1.53,7.8,3.56,5.39,13.37,10.8,26.75,15.56,40.34,8.6,24.56,16.76,49.27,25.07,73.94,5.01,14.88,10.04,29.77,14.87,44.71,1.31,4.07,2.14,8.32,2.75,12.56.17,1.18-.92,3.23-1.99,3.77-5.6,2.83-11.25,5.67-17.13,7.83-13.66,5.02-27.43,9.74-41.21,14.45-21.77,7.45-43.56,14.84-65.38,22.13-4.69,1.57-9.55,2.6-15.16,4.1ZM118.9,176.02c-1.24,3.87-2.26,6.6-2.99,9.41-1.67,6.38-3.2,12.79-4.77,19.19-.71,2.88-1.83,3.87-4.92,2.16-4.27-2.36-8.88-4.1-13.99-6.39-2.11,8.97-4.05,17.17-6.07,25.76-4.69-2.23-8.42-4-12.73-6.06-1.28,8.51-2.39,15.87-3.67,24.37,6.71-2.43,12.24-4.52,17.83-6.43,17.87-6.1,35.78-12.08,53.64-18.22,3.66-1.26,7.15-2.98,11.78-4.93-11.66-13.28-22.59-25.74-34.11-38.87ZM59.98,196.21c0,7.58.79,8.59,6.8,8.6,6.65.02,8.23-1.1,8.16-5.75-.1-6.93-2.38-9.12-9.62-9.22-5.03-.07-5.34.29-5.34,6.37Z"/>
    <path class="cls-2" d="M275.15,447.61c-.11-2.34-.25-4.12-.26-5.91-.04-15.15-.05-30.31-.1-45.46-.02-5.4-.05-5.43-5.63-5.45-10-.04-19.99-.04-29.99-.06-1.59,0-3.18,0-5-.55,21.88-24.58,46.52-46.08,69.55-69.88,23.7,23.2,47.03,46.05,70.37,68.89-.21.44-.43.89-.64,1.33h-40.65c0,2.41,0,4.18,0,5.94,0,15.15.02,30.31,0,45.46,0,5.63-.08,5.7-5.45,5.71-15.66,0-31.32-.02-46.98-.03-1.62,0-3.24,0-5.23,0Z"/>
    <path class="cls-3" d="M535.99,224.54c-3.65,11.2-8.54,20.57-14.05,29.61-.53.86-2.42,1.23-3.67,1.21-1.05-.01-2.09-.92-3.13-1.44-17.84-8.91-35.69-17.78-53.49-26.77-3.38-1.71-6.52-3.88-9.86-5.89.73-5.11,4.37-7.75,7.74-10.2,8.68-6.31,17.64-12.24,26.48-18.33,2.29-1.58,4.56-3.19,7.73-5.42,3.76,14.44,7.37,28.33,11.13,42.8,10.5-1.88,20.29-3.64,31.13-5.58Z"/>
    <path class="cls-3" d="M531.53,192.82q7.25-.01,7.25,6.51c0,7.5-1.58,9.5-7.51,9.49-6.53,0-8.47-1.86-8.48-8.05,0-6.84,1.21-7.94,8.73-7.95Z"/>
    <path class="cls-1" d="M346.27,165.29c-7.26-.96-14.13-1.73-20.95-2.8-11.41-1.79-22.81-3.62-34.17-5.7-11.69-2.14-23.31-4.65-34.99-6.86-3.3-.62-4.67-2.49-4.23-5.57.99-7.02,2.06-14.04,3.31-21.02,1.77-9.91,3.7-19.78,5.65-29.66.51-2.59.99-5.31,2.19-7.59,1.02-1.94,2.97-4.61,4.68-4.74,4.94-.38,7.62-3.59,10.8-6.49,1.08-.99,2.94-1.83,4.31-1.66,5.06.62,10.05,2.16,15.11,2.44,4.6.26,6.51,2.86,6.63,6.51.16,4.76,3.22,5.15,6.55,5.75,11.86,2.15,23.77,4.03,35.55,6.54,11.61,2.48,11.92,2.82,10.09,14.44-2.67,16.94-5.91,33.8-8.94,50.68-.29,1.61-.87,3.17-1.59,5.74ZM294.72,99.9c-15.01.79-24.27,9.07-24.58,22.58-.26,11.14,9.54,22.55,24.76,22.32,10.31-.15,20.37-9.16,20.8-22.6.41-12.8-10.45-21.64-20.98-22.3ZM338.24,101.78c-.61,3.68-1.79,6.17-1.14,8.04.68,1.96,2.89,3.7,4.86,4.76.99.54,4.02-.35,4.2-1.08.53-2.08.9-5.01-.18-6.51-1.48-2.04-4.36-3.06-7.74-5.22ZM289.89,90c2.94-.22,5.63.47,5.96-3.05.33-3.59-2.14-4.56-4.9-4.97-1.62-.24-3.51-.44-4.9.17-1.29.57-2.76,2.18-2.89,3.47-.1,1.03,1.48,2.59,2.68,3.29,1.36.79,3.13.86,4.06,1.09Z"/>
    <path class="cls-3" d="M118.9,176.02c11.52,13.13,22.45,25.58,34.11,38.87-4.63,1.95-8.13,3.67-11.78,4.93-17.86,6.14-35.77,12.12-53.64,18.22-5.59,1.91-11.12,4-17.83,6.43,1.28-8.5,2.39-15.86,3.67-24.37,4.31,2.05,8.04,3.83,12.73,6.06,2.02-8.58,3.96-16.79,6.07-25.76,5.1,2.29,9.72,4.04,13.99,6.39,3.09,1.7,4.21.72,4.92-2.16,1.57-6.4,3.11-12.81,4.77-19.19.73-2.81,1.75-5.54,2.99-9.41Z"/>
    <path class="cls-3" d="M59.98,196.21c0-6.07.31-6.44,5.34-6.37,7.24.1,9.52,2.29,9.62,9.22.06,4.65-1.52,5.76-8.16,5.75-6.01-.01-6.8-1.02-6.8-8.6Z"/>
    <path class="cls-3" d="M294.72,99.9c10.53.67,21.39,9.5,20.98,22.3-.43,13.44-10.49,22.45-20.8,22.6-15.21.23-25.01-11.18-24.76-22.32.31-13.51,9.57-21.79,24.58-22.58ZM308.88,122.55c1.58-8.14-7.83-16.5-15.87-15.79-10.82.95-15.3,7.14-16.05,18.27-.11,1.64.76,3.45,1.49,5.04,2.51,5.43,7.83,6.63,12.8,8.56,4.89,1.9,8.56.51,12.17-2.76,4-3.62,5.69-8.04,5.45-13.32Z"/>
    <path class="cls-3" d="M338.24,101.78c3.38,2.16,6.26,3.18,7.74,5.22,1.09,1.5.71,4.43.18,6.51-.19.73-3.21,1.62-4.2,1.08-1.96-1.06-4.18-2.8-4.86-4.76-.65-1.87.52-4.37,1.14-8.04Z"/>
    <path class="cls-3" d="M289.89,90c-.94-.23-2.7-.31-4.06-1.09-1.2-.69-2.78-2.26-2.68-3.29.13-1.28,1.6-2.9,2.89-3.47,1.4-.62,3.29-.41,4.9-.17,2.77.41,5.23,1.38,4.9,4.97-.32,3.52-3.01,2.83-5.96,3.05Z"/>
    <path class="cls-1" d="M308.88,122.55c.24,5.28-1.45,9.69-5.45,13.32-3.61,3.28-7.28,4.66-12.17,2.76-4.97-1.93-10.29-3.13-12.8-8.56-.73-1.59-1.6-3.39-1.49-5.04.75-11.13,5.24-17.32,16.05-18.27,8.04-.71,17.45,7.65,15.87,15.79Z"/>
  </g>
</svg>