<?xml version="1.0" encoding="UTF-8"?>
<svg id="Layer_2" data-name="Layer 2" xmlns="http://www.w3.org/2000/svg" viewBox="0 0 597.71 597.71">
  <defs>
    <style>
      .cls-1 {
        fill: none;
      }

      .cls-1, .cls-2 {
        stroke-width: 0px;
      }

      .cls-2 {
        fill: #0069fe;
      }
    </style>
  </defs>
  <g id="Layer_1-2" data-name="Layer 1">
    <rect class="cls-1" x="0" width="597.71" height="597.71"/>
    <g>
      <path class="cls-2" d="M299.44,596.79c-.05-.76-.14-1.51-.14-2.27,0-37.06,0-74.12-.06-111.17,0-1.82.64-2.04,2.16-2.05,22.93-.16,45.02-4.6,66.27-13.17,24.63-9.93,46.12-24.55,64.37-43.83,25.11-26.54,41.26-57.78,47.28-93.81,7.82-46.86-.57-91.03-25.57-131.44-21.19-34.25-51.47-57.76-89.57-71-15.7-5.46-31.83-9.08-48.44-10.42-49.57-4.01-94.01,9.26-132.6,40.55-34.19,27.71-55.6,63.5-64.18,106.79-2.12,10.68-3.37,21.46-3.06,32.36.05,1.64-.79,1.5-1.86,1.5-16.46-.01-32.93,0-49.39,0-20.79,0-41.57,0-62.36,0-.76,0-1.52.04-2.28.06,0-5.47,0-10.94,0-16.4.54-.35.34-.91.36-1.39.5-8.95,1.44-17.86,2.79-26.71,2.97-19.5,7.77-38.55,14.62-57.05,18.37-49.61,47.81-91.49,88.13-125.7,19.81-16.81,41.49-30.75,64.99-41.87C208.77,11.81,248.68,2.3,290.55,1.06c25.27-.75,50.24,1.81,74.93,7.16,25.41,5.51,49.87,13.74,73.05,25.61,42.98,22.02,78.22,52.96,105.85,92.48,29.91,42.77,46.5,90.47,51.77,142.24,1.87,18.37,2.1,36.78.52,55.21-1.49,17.37-4.32,34.51-8.87,51.34-15.57,57.51-45.65,106.12-89.96,145.91-21.55,19.35-45.53,35.08-71.74,47.41-34.46,16.21-70.7,25.42-108.71,27.73-2.41.15-4.9-.17-7.26.65h-10.68Z"/>
      <path class="cls-2" d="M184.26,481.97c-.05-.69-.13-1.39-.13-2.08,0-36.74.01-73.48-.05-110.23,0-1.91.55-2.24,2.32-2.24,36.87.05,73.74.06,110.61,0,1.87,0,2.27.5,2.27,2.31-.06,36.74-.05,73.48,0,110.23,0,1.7-.38,2.23-2.17,2.23-37-.06-73.99-.04-110.99-.05-.63,0-1.27.14-1.87-.19l.03.03Z"/>
      <path class="cls-2" d="M184.23,481.95c-.03.76-.1,1.52-.1,2.28,0,28.04-.02,56.07.03,84.11,0,1.66-.3,2.25-2.14,2.24-28.23-.07-56.45-.06-84.68,0-1.63,0-2.12-.32-2.11-2.05.06-28.1.06-56.2,0-84.3,0-1.66.37-2.12,2.08-2.12,28.16.06,56.33.04,84.49.03.82,0,1.63-.1,2.45-.16,0,0-.03-.03-.03-.03Z"/>
      <path class="cls-2" d="M57.61,482.14c-11.63,0-23.26-.04-34.88.04-1.8.01-2.15-.53-2.15-2.22.06-23.13.06-46.26,0-69.38,0-1.73.49-2.07,2.11-2.06,23.26.05,46.51.06,69.77,0,1.78,0,2.17.51,2.16,2.22-.06,23.13-.06,46.26,0,69.38,0,1.75-.52,2.07-2.13,2.06-11.63-.07-23.25-.04-34.88-.04Z"/>
    </g>
  </g>
</svg>