<?xml version="1.0" encoding="UTF-8"?>
<svg id="Layer_2" data-name="Layer 2" xmlns="http://www.w3.org/2000/svg" viewBox="0 0 597.71 597.71">
  <defs>
    <style>
      .cls-1 {
        fill: #c14432;
      }

      .cls-1, .cls-2 {
        stroke-width: 0px;
      }

      .cls-2 {
        fill: none;
      }
    </style>
  </defs>
  <g id="Layer_1-2" data-name="Layer 1">
    <rect class="cls-2" width="597.71" height="597.71"/>
    <path class="cls-1" d="M298.36,416.45c-35.18,0-70.37-.04-105.55.01-31.34.05-61.06-6.64-88.8-21.35-32.53-17.24-57.69-42.06-75.41-74.34-12.72-23.18-19.76-48.02-21.9-74.37-2.75-33.84,3.32-66.13,18.56-96.24,25.23-49.83,65.29-82.02,119.4-96.38,15.5-4.11,31.36-5.8,47.4-5.79,71.88.03,143.77-.27,215.65.11,46.52.25,87.67,15.67,122.46,46.83,33.37,29.88,53.14,67.21,59.34,111.57,5.26,37.66-.08,73.91-17.27,107.83-25.26,49.85-65.32,81.98-119.42,96.34-15.66,4.16-31.68,5.82-47.9,5.79-35.52-.06-71.04-.02-106.56-.02ZM299.08,351.72c33.16,0,66.32-.03,99.48.02,8.59.01,17.12-.52,25.56-2.19,31.13-6.14,56.15-22.02,74.56-47.76,19.54-27.33,26.08-57.89,20.35-90.93-5.4-31.11-21.27-55.99-46.48-74.76-21.47-15.98-45.86-23.4-72.62-23.38-67.16.05-134.33.03-201.49,0-8.26,0-16.44.57-24.56,2.1-26.92,5.05-49.57,17.85-67.55,38.39-19.82,22.64-29.74,49.15-29.63,79.4.11,32.45,11.92,60.13,34.42,83.05,23.6,24.05,52.62,36.07,86.47,36.07,33.83,0,67.67,0,101.5,0Z"/>
    <path class="cls-1" d="M65.43,455.56c6.79,0,13.58.03,20.37,0,10.66-.07,20.07,3.24,27.71,10.73,7.13,6.98,10.96,15.59,11.3,25.64.35,10.54-3.17,19.69-10.41,27.27-6.44,6.74-14.43,10.97-23.8,11.24-15.6.46-31.21.48-46.82.37-9.91-.07-18.78-3.29-26.13-10.21-6.21-5.84-10.07-12.96-11.41-21.34-1.78-11.16.93-21.25,8.13-29.94,6.94-8.38,15.93-13.14,26.88-13.53,8.05-.29,16.12-.06,24.18-.06,0-.06,0-.12,0-.17ZM65.48,468.77c-7.12,0-14.25.04-21.37-.01-7.96-.06-14.37,3.25-19.12,9.4-6.06,7.85-7.13,16.62-2.78,25.57,4.37,8.99,11.85,13.77,21.94,13.85,14.16.12,28.33.03,42.49.03.93,0,1.87,0,2.79-.12,13.93-1.77,23.59-14.96,21.04-28.74-2.32-12.54-13.77-20.32-23.87-20.02-7.03.21-14.08.04-21.12.04Z"/>
    <path class="cls-1" d="M516.36,486.61h69.89c-.34.8-.49,1.33-.77,1.77-2.05,3.22-4.2,6.37-6.16,9.64-.82,1.37-1.82,1.73-3.32,1.72-11.37-.05-22.75-.03-34.12-.03-7.55,0-15.11,0-22.66,0h-2.91c.66,3.85,2.47,6.69,4.69,9.25,5.07,5.84,11.48,8.7,19.28,8.66,16.04-.09,32.09-.03,48.13-.03h3.41c-1.04,1.68-1.78,2.89-2.54,4.08-1.65,2.57-3.37,5.09-4.95,7.7-.66,1.09-1.44,1.49-2.68,1.48-14.09-.03-28.18.09-42.27-.06-10.31-.1-19.5-3.47-26.94-10.77-6.92-6.8-10.83-15.14-11.23-24.89-.54-13.33,4.67-24.1,15.22-32.19,6.69-5.13,14.45-7.37,22.82-7.39,16.38-.05,32.77-.02,49.15-.01.58,0,1.17.08,2.02.13-.39.73-.65,1.32-1,1.86-1.97,3.07-4.05,6.07-5.89,9.22-.95,1.63-2.14,2.05-3.92,2.04-13.67-.06-27.33-.05-41-.03-9.44,0-19.19,7.18-21.98,16.14-.14.46-.15.97-.26,1.7Z"/>
    <path class="cls-1" d="M154.93,493.24h5.22c7.21,0,14.43-.02,21.64,0,4.16.02,8.31.15,12.47.16,3.3,0,6.35-.77,8.97-2.98,3.76-3.17,5.35-8.66,3.73-13.37-1.74-5.05-6.12-8.28-11.31-8.28-15.28-.01-30.56,0-45.84,0h-2.6c-.27,6.99-.09,13.82-.12,20.65-.03,6.87,0,13.74,0,20.62v20.68h-13.7c-.61-1.81-.9-68.34-.29-74.97.75-.06,1.55-.19,2.35-.19,19.95-.01,39.89-.01,59.84,0,6.78,0,12.87,1.95,17.95,6.58,4.84,4.41,7.66,9.83,8.27,16.38.69,7.4-1.42,13.92-6.39,19.41-4.58,5.06-10.3,7.91-17.19,8.21-1.95.08-3.9,0-5.86.03-.64,0-1.28.14-2.56.3,9.8,8.23,19.15,16.07,28.91,24.27-.96.08-1.35.13-1.73.13-5.69,0-11.37-.02-17.06.03-1.29.01-2.22-.45-3.17-1.28-13.41-11.69-26.85-23.35-40.27-35.03-.3-.26-.55-.57-1.26-1.34Z"/>
    <path class="cls-1" d="M331.47,530.86c-5.43,0-10.35-.04-15.27.02-1.26.02-1.79-.69-2.34-1.6-1.97-3.26-4.05-6.47-5.92-9.79-.82-1.45-1.76-1.96-3.43-1.95-11.46.08-22.91,0-34.37.08-1.91.01-3.09-.46-4.07-2.21-1.61-2.88-3.55-5.58-5.34-8.36-.49-.76-.92-1.55-1.65-2.78h38.59c-6.99-11.28-13.64-22.03-20.58-33.01-.71,1.02-1.26,1.74-1.74,2.5-11.65,18.41-23.3,36.81-34.9,55.26-.82,1.3-1.65,1.9-3.22,1.87-4.73-.09-9.47-.03-14.51-.03.38-.77.59-1.3.89-1.76,13.84-21.64,27.69-43.27,41.54-64.91,1.05-1.64,2.04-3.33,3.19-4.9,4.5-6.1,13.59-5.85,17.68.51,14.53,22.61,29.02,45.24,43.53,67.86.58.91,1.11,1.85,1.91,3.2Z"/>
    <path class="cls-1" d="M414.85,518.2c-2.69,4.18-5.38,8.37-8.14,12.67h-2.28c-13.66,0-27.33.07-40.99-.03-5.35-.04-10.61-.82-15.64-2.9-14.95-6.2-24.99-21.27-23.15-38.63,1.91-18.02,15.77-31.39,33.37-33.5,1.85-.22,3.72-.23,5.59-.23,15.78-.02,31.57-.01,47.35-.01h2.84c-.6,1.09-.95,1.83-1.39,2.52-1.81,2.87-3.73,5.67-5.44,8.6-.92,1.58-2.02,2.15-3.86,2.14-13.49-.08-26.99.08-40.48-.08-12.7-.15-24.45,11.08-24.17,24.94.24,11.92,9.56,22.39,21.37,23.78,1.09.13,2.2.16,3.3.16,16.12,0,32.25,0,48.37,0h3.02c.11.19.22.39.33.58Z"/>
    <path class="cls-1" d="M422.29,455.71h14.08c.17,6.89.06,13.72.08,20.55.02,6.79,0,13.57,0,20.36v20.92c5.8.18,11.38.06,16.95.08,5.6.02,11.2,0,16.8,0h33.58c-.35.8-.47,1.19-.68,1.52-2.19,3.43-4.46,6.81-6.56,10.29-.81,1.34-1.88,1.45-3.21,1.45-15.87-.02-31.73-.01-47.6-.01-4.67,0-9.33.02-14-.02-1.18,0-2.37-.13-3.53-.33-3.79-.66-5.9-3.19-5.91-7.07-.02-11.37,0-22.73,0-34.1,0-10.18,0-20.36,0-30.53,0-.92,0-1.85,0-3.11Z"/>
  </g>
</svg>