<?xml version="1.0" encoding="UTF-8"?>
<svg id="Layer_2" data-name="Layer 2" xmlns="http://www.w3.org/2000/svg" viewBox="0 0 597.71 597.71">
  <defs>
    <style>
      .cls-1 {
        fill: #e94335;
      }

      .cls-1, .cls-2, .cls-3, .cls-4, .cls-5, .cls-6 {
        stroke-width: 0px;
      }

      .cls-2 {
        fill: none;
      }

      .cls-3 {
        fill: #fabb05;
      }

      .cls-4 {
        fill: #34a753;
      }

      .cls-5 {
        fill: #4285f3;
      }

      .cls-6 {
        fill: #7ac58e;
      }
    </style>
  </defs>
  <g id="Layer_1-2" data-name="Layer 1">
    <path class="cls-5" d="M436.97,539.02h-139.13c-.03-.73-.09-1.45-.09-2.18,0-33.86-.01-67.73-.02-101.59.68-.02,1.36-.06,2.04-.06,42.62,0,85.25,0,127.87,0,2.34,0,4.66-.14,6.98-.38,35.59-3.68,60.96-34.71,57.53-70.31-3.07-31.79-29.7-56.94-61.63-58.19q-2.84-.11-2.84-3.04c0-10.54.21-21.08-1.42-31.56-4.15-26.55-15.35-49.65-33.59-69.37-3.9-4.21-8.19-8.02-12.5-11.79,12.47-12.47,24.94-24.93,37.41-37.4,11.78-11.78,23.55-23.57,35.33-35.36.34.27.7.52,1.02.81,12.15,10.86,23.02,22.87,32.63,36.03,16.59,22.72,28.71,47.63,36.32,74.71.41,1.45,1.11,2.44,2.35,3.29,11.68,8.02,22.17,17.41,31.37,28.17,24.12,28.24,37.69,60.88,40.63,97.93.12,1.57-.1,3.18.48,4.71v15.75c-.42.27-.25.7-.27,1.06-.44,7.92-1.38,15.77-2.95,23.54-7.16,35.34-23.83,65.45-50.24,89.95-28.95,26.86-63.32,41.67-102.71,44.78-1.52.12-3.08-.1-4.55.48Z"/>
    <path class="cls-4" d="M158.71,538.73c-11.39-.53-22.57-2.36-33.57-5.31-21.21-5.67-40.56-15.17-58.17-28.26-.27-.2-.5-.45-.75-.68.25-.23.5-.46.74-.7,18.18-18.15,36.36-36.3,54.53-54.47,6.63-6.63,13.23-13.28,19.84-19.92.32.11.65.2.96.33,8.71,3.86,17.84,5.48,27.34,5.47,42.06-.05,84.13-.02,126.19-.02.63,0,1.26.04,1.89.06,0,33.86,0,67.73.02,101.59,0,.73.06,1.45.09,2.18h-131.26c-2.61-.46-5.24-.31-7.87-.3Z"/>
    <path class="cls-6" d="M158.71,538.73c2.63-.01,5.26-.16,7.87.3h-7.88c0-.1,0-.2,0-.3Z"/>
    <path class="cls-1" d="M380.16,190.55c-3.93-2.93-7.84-5.9-11.99-8.52-16.5-10.4-34.42-16.79-53.81-18.99-25.9-2.94-50.53,1.48-73.84,13.09-14.69,7.31-27.48,17.18-38.49,29.35-.58-.07-1.16-.11-1.73-.22-11.63-2.21-23.36-3.19-35.21-2.92-10.38.24-20.64,1.38-30.79,3.51-21.96,4.61-42.19,13.29-60.71,25.97-.39.27-.74.65-1.27.66,0-1.43.6-2.74.99-4.07,8.61-29.16,22.04-55.88,40.72-79.88,17.65-22.68,38.93-41.31,63.59-56.07,23.23-13.91,48.13-23.46,74.66-28.8,12.5-2.52,25.12-4.02,37.87-4.48,40.03-1.45,78.01,6.62,113.79,24.7,17.62,8.9,33.71,20.05,48.36,33.29.21.19.4.42.6.63-11.78,11.79-23.55,23.57-35.33,35.36-12.47,12.47-24.94,24.93-37.41,37.4Z"/>
    <path class="cls-3" d="M72.32,232.48c.53-.01.88-.39,1.27-.66,18.52-12.68,38.74-21.36,60.71-25.97,10.15-2.13,20.41-3.27,30.79-3.51,11.85-.27,23.57.72,35.21,2.92.57.11,1.16.15,1.73.22,5.03,1.27,10.11,2.37,15.08,3.89,34.19,10.49,62.35,29.78,84.52,57.84.76.96.62,1.44-.18,2.24-24.39,24.34-48.76,48.7-73.1,73.08-1.04,1.04-1.28.66-1.81-.39-9.87-19.55-25.54-31.78-47.08-35.62-21.43-3.82-40.45,2.04-56.21,17.07-14.22,13.56-21.08,30.55-19.78,50.13,1.66,25.02,14.11,43.39,36.47,54.92.47.24.94.5,1.41.75-6.61,6.64-13.22,13.29-19.84,19.92-18.17,18.16-36.35,36.31-54.53,54.47-.24.24-.5.46-.74.7-4.91-3.51-9.41-7.51-13.75-11.69-23.04-22.18-38.63-48.75-46.75-79.67-4.16-15.85-5.9-31.99-5.28-48.36.95-24.99,7.04-48.66,18.52-70.9,12.46-24.14,29.78-44.12,51.8-60.03.47-.34.92-.72,1.37-1.08.08-.09.16-.19.23-.28,0,0-.04.01-.04.01Z"/>
    <path class="cls-1" d="M72.36,232.47c-.08.09-.16.19-.23.28.01-.15-.02-.34.23-.28Z"/>
    <rect class="cls-2" width="597.71" height="597.71"/>
  </g>
</svg>